<svg width="86" height="75" viewBox="0 0 86 75" fill="none" xmlns="http://www.w3.org/2000/svg">
<path d="M72.8327 20.5146L72.7034 20.21C68.2819 9.79572 58.5455 2.23082 47.3478 0.786754L47.3461 0.786547C36.2386 -0.682398 25.3288 3.55798 18.1908 12.0929C16.091 14.6039 14.4269 17.3318 13.2089 20.2095L13.0798 20.5146H12.7485H7.55859C3.66296 20.5146 0.5 23.658 0.5 27.5126V37.51C0.5 41.3646 3.66296 44.508 7.55859 44.508H17.2139L16.3483 41.8868L16.3483 41.8867C13.1443 32.1809 14.9463 22.2432 21.3039 14.6439L72.8327 20.5146ZM72.8327 20.5146H73.1637M72.8327 20.5146H73.1637M73.1637 20.5146H78.4414C82.3371 20.5146 85.5 23.6578 85.5 27.5125V37.5098C85.5 41.3644 82.337 44.5078 78.4414 44.5078H73.1307H72.7983L72.6697 44.8143C68.6703 54.3431 60.3494 61.309 50.4438 63.6446L50.0586 63.7354V64.1312V67.502C50.0586 71.3566 46.8956 74.5 43 74.5C39.1044 74.5 35.9414 71.3566 35.9414 67.502C35.9414 63.6504 39.1233 60.504 43.0492 60.504C54.945 60.504 65.5971 53.0133 69.5597 41.8574C69.5601 41.8563 69.5605 41.8551 69.5609 41.854L69.5695 41.831L69.5704 41.8285M73.1637 20.5146L69.5704 41.8285M69.5704 41.8285C71.1677 37.458 71.6051 32.6353 70.8376 27.8813C70.606 26.2822 70.2034 24.7278 69.6302 23.2162L69.5704 41.8285ZM46.8214 4.74967C57.1278 6.08145 66.0664 13.3069 69.6104 23.1636C69.6108 23.1649 69.6112 23.1661 69.6117 23.1673L69.6298 23.2152L46.8214 4.74967ZM46.8214 4.74967C37.0853 3.48322 27.5488 7.17676 21.304 14.6438L46.8214 4.74967Z" fill="#0AA8B0"/>
<path d="M72.8327 20.5146L72.7034 20.21C68.2819 9.79572 58.5455 2.23082 47.3478 0.786754L47.3461 0.786547C36.2386 -0.682398 25.3288 3.55798 18.1908 12.0929C16.091 14.6039 14.4269 17.3318 13.2089 20.2095L13.0798 20.5146H12.7485H7.55859C3.66296 20.5146 0.5 23.658 0.5 27.5126V37.51C0.5 41.3646 3.66296 44.508 7.55859 44.508H17.2139L16.3483 41.8868L16.3483 41.8867C13.1443 32.1809 14.9463 22.2432 21.3039 14.6439L72.8327 20.5146ZM72.8327 20.5146H73.1637M72.8327 20.5146H73.1637M73.1637 20.5146H78.4414C82.3371 20.5146 85.5 23.6578 85.5 27.5125V37.5098C85.5 41.3644 82.337 44.5078 78.4414 44.5078H73.1307H72.7983L72.6697 44.8143C68.6703 54.3431 60.3494 61.309 50.4438 63.6446L50.0586 63.7354V64.1312V67.502C50.0586 71.3566 46.8956 74.5 43 74.5C39.1044 74.5 35.9414 71.3566 35.9414 67.502C35.9414 63.6504 39.1233 60.504 43.0492 60.504C54.945 60.504 65.5971 53.0133 69.5597 41.8574C69.5601 41.8563 69.5605 41.8551 69.5609 41.854L69.5695 41.831L69.5704 41.8285M73.1637 20.5146L69.5704 41.8285M69.5704 41.8285C71.1677 37.458 71.6051 32.6353 70.8376 27.8813C70.606 26.2822 70.2034 24.7278 69.6302 23.2162L69.5704 41.8285ZM46.8214 4.74967C57.1278 6.08145 66.0664 13.3069 69.6104 23.1636C69.6108 23.1649 69.6112 23.1661 69.6117 23.1673L69.6298 23.2152L46.8214 4.74967ZM46.8214 4.74967C37.0853 3.48322 27.5488 7.17676 21.304 14.6438L46.8214 4.74967Z" stroke="black"/>
<path d="M72.8327 20.5146L72.7034 20.21C68.2819 9.79572 58.5455 2.23082 47.3478 0.786754L47.3461 0.786547C36.2386 -0.682398 25.3288 3.55798 18.1908 12.0929C16.091 14.6039 14.4269 17.3318 13.2089 20.2095L13.0798 20.5146H12.7485H7.55859C3.66296 20.5146 0.5 23.658 0.5 27.5126V37.51C0.5 41.3646 3.66296 44.508 7.55859 44.508H17.2139L16.3483 41.8868L16.3483 41.8867C13.1443 32.1809 14.9463 22.2432 21.3039 14.6439L72.8327 20.5146ZM72.8327 20.5146H73.1637M72.8327 20.5146H73.1637M73.1637 20.5146H78.4414C82.3371 20.5146 85.5 23.6578 85.5 27.5125V37.5098C85.5 41.3644 82.337 44.5078 78.4414 44.5078H73.1307H72.7983L72.6697 44.8143C68.6703 54.3431 60.3494 61.309 50.4438 63.6446L50.0586 63.7354V64.1312V67.502C50.0586 71.3566 46.8956 74.5 43 74.5C39.1044 74.5 35.9414 71.3566 35.9414 67.502C35.9414 63.6504 39.1233 60.504 43.0492 60.504C54.945 60.504 65.5971 53.0133 69.5597 41.8574C69.5601 41.8563 69.5605 41.8551 69.5609 41.854L69.5695 41.831L69.5704 41.8285M73.1637 20.5146L69.5704 41.8285M69.5704 41.8285C71.1677 37.458 71.6051 32.6353 70.8376 27.8813C70.606 26.2822 70.2034 24.7278 69.6302 23.2162L69.5704 41.8285ZM46.8214 4.74967C57.1278 6.08145 66.0664 13.3069 69.6104 23.1636C69.6108 23.1649 69.6112 23.1661 69.6117 23.1673L69.6298 23.2152L46.8214 4.74967ZM46.8214 4.74967C37.0853 3.48322 27.5488 7.17676 21.304 14.6438L46.8214 4.74967Z" stroke="black" stroke-opacity="0.2"/>
<path d="M64.0001 32.8079C64.0001 44.3069 54.6018 53.6356 43.0001 53.6356C31.3983 53.6356 22.0001 44.3069 22.0001 32.8079C22.0001 21.3089 31.3983 11.9802 43.0001 11.9802C54.6018 11.9802 64.0001 21.3089 64.0001 32.8079Z" fill="#0AA8B0"/>
<path d="M64.0001 32.8079C64.0001 44.3069 54.6018 53.6356 43.0001 53.6356C31.3983 53.6356 22.0001 44.3069 22.0001 32.8079C22.0001 21.3089 31.3983 11.9802 43.0001 11.9802C54.6018 11.9802 64.0001 21.3089 64.0001 32.8079Z" stroke="black"/>
<path d="M64.0001 32.8079C64.0001 44.3069 54.6018 53.6356 43.0001 53.6356C31.3983 53.6356 22.0001 44.3069 22.0001 32.8079C22.0001 21.3089 31.3983 11.9802 43.0001 11.9802C54.6018 11.9802 64.0001 21.3089 64.0001 32.8079Z" stroke="black" stroke-opacity="0.2"/>
<path d="M22.5 58C21 56.1683 28.3979 45.1779 28.3979 45.1779L32.2747 49.0236L36.1514 52.8692C36.1514 52.8692 24 59.8317 22.5 58Z" fill="#0AA8B0"/>
<path d="M22.5 58C21 56.1683 28.3979 45.1779 28.3979 45.1779L32.2747 49.0236L36.1514 52.8692C36.1514 52.8692 24 59.8317 22.5 58Z" stroke="black"/>
<path d="M22.5 58C21 56.1683 28.3979 45.1779 28.3979 45.1779L32.2747 49.0236L36.1514 52.8692C36.1514 52.8692 24 59.8317 22.5 58Z" stroke="black" stroke-opacity="0.2"/>
<rect x="-0.5" y="0.5" width="5.02" height="22.887" rx="2.51" transform="matrix(-1 0 0 1 45.0099 21.291)" fill="white"/>
<rect x="-0.5" y="0.5" width="5.02" height="22.887" rx="2.51" transform="matrix(-1 0 0 1 45.0099 21.291)" stroke="black"/>
<rect x="-0.5" y="0.5" width="5.02" height="22.887" rx="2.51" transform="matrix(-1 0 0 1 45.0099 21.291)" stroke="black" stroke-opacity="0.2"/>
<rect x="-0.5" y="-0.5" width="4.97175" height="23.08" rx="2.48587" transform="matrix(0 -1 -1 0 54.04 34.7937)" fill="white"/>
<rect x="-0.5" y="-0.5" width="4.97175" height="23.08" rx="2.48587" transform="matrix(0 -1 -1 0 54.04 34.7937)" stroke="black"/>
<rect x="-0.5" y="-0.5" width="4.97175" height="23.08" rx="2.48587" transform="matrix(0 -1 -1 0 54.04 34.7937)" stroke="black" stroke-opacity="0.2"/>
</svg>
